<svg width="77" height="72" viewBox="0 0 77 72" fill="none" xmlns="http://www.w3.org/2000/svg">
<path d="M70.3856 18.9175L22.3495 24.971L24.086 64.4175L69.5558 56.5611C70.0353 56.4782 70.3855 56.0623 70.3855 55.5757L70.3856 18.9175Z" fill="#FFC94B"/>
<g filter="url(#filter0_i_2200_3)">
<path d="M65.881 23.274L30.3866 27.774L30.3866 47.4177L65.8811 41.6349L65.881 23.274Z" fill="#00A2CD"/>
</g>
<path d="M24.0438 22.1507C24.0438 21.8304 23.8903 21.5294 23.631 21.3413L7.88699 9.91777L8.3808 51.9315C8.38441 52.2385 8.5288 52.5268 8.77245 52.7135L24.0449 64.4178L24.0438 22.1507Z" fill="#C34400"/>
<path d="M70.3457 18.1416C70.4694 18.1473 70.5718 18.2387 70.5918 18.3604L71.0859 21.3623C71.8555 26.0401 68.0797 30.2654 63.3262 30.0459C62.4883 30.0072 61.6929 29.8309 60.958 29.543C59.6342 31.8832 56.9507 33.2945 54.1318 32.8496L53.0361 32.6768C52.2023 32.5451 51.4169 32.2795 50.7002 31.9053C48.7141 33.9706 45.8297 35.1618 42.7217 34.8447C41.0328 34.6724 39.4805 34.0671 38.1748 33.1426C36.6961 35.7099 33.8264 37.3842 30.6299 37.1318C26.6931 36.8208 23.6166 33.6561 23.4268 29.7217L23.1768 24.5312L33.9824 23.7061L33.8877 22.627L46.2402 22.0889L46.0996 20.8428L56.5703 20.0332L56.6709 19.2539L69.8877 18.1211L70.3457 18.1416Z" fill="#035D74"/>
<path d="M24.3645 4.97358C24.1441 4.7317 23.8192 4.613 23.4947 4.65578L8.04813 6.69224C7.54932 6.758 7.17704 7.18412 7.17885 7.68725L7.19543 12.3103L22.1572 21.1365C22.4206 21.2919 22.5984 21.5592 22.6399 21.8622L24.0393 32.0847C24.1038 32.5558 24.491 32.9163 24.9655 32.947L31.5472 33.3722C32.0099 33.4021 32.4324 33.1101 32.568 32.6667L36.6812 19.2149C36.7845 18.8772 36.702 18.51 36.464 18.2489L24.3645 4.97358Z" fill="#E25959"/>
<path d="M27.8516 4.14023L17.8867 5.41772L35.8867 19.4177L35.8867 26.3065C35.8867 29.2592 38.0142 31.7824 40.9244 32.2812C44.2607 32.853 47.4188 30.5819 47.9384 27.2371L49.6259 16.3751L27.8516 4.14023Z" fill="#FFE3C3"/>
<path d="M39.3543 2.64068L27.8517 4.1405L48.8867 17.9177L49.3867 23.4177L49.3548 23.769C49.0896 26.6856 51.091 29.3236 53.9712 29.854C57.1427 30.438 60.1614 28.2609 60.6083 25.0671L61.8867 15.931L39.3543 2.64068Z" fill="#E15959"/>
<path d="M49.1707 1.57208C48.9861 1.47173 48.7745 1.43211 48.5661 1.45883L39.3514 2.64016L61.3872 15.9177L60.8453 19.4052C60.3561 22.5537 62.5119 25.5027 65.6604 25.9918C69.3184 26.5601 72.5575 23.585 72.3014 19.892L71.9132 14.2918C71.897 14.0588 71.763 13.8501 71.5577 13.7386L49.1707 1.57208Z" fill="#FFE3C3"/>
<path d="M61.4363 15.8374L60.7723 20.785C60.3035 24.2781 63.0203 27.3839 66.5448 27.3839C69.9094 27.3839 72.5741 24.5412 72.3568 21.1837L71.9067 14.2261C71.8954 14.0527 71.7515 13.9178 71.5777 13.9178L71.3867 13.9178L61.4363 15.8374Z" fill="#EBA04B"/>
<path d="M48.8867 17.4177L49.1872 24.6298C49.3034 27.4191 51.3602 29.7444 54.1144 30.2002C57.4047 30.7448 60.4912 28.4537 60.9224 25.1467L61.1171 23.6535L61.3867 15.4177L48.8867 17.4177Z" fill="#951C1C"/>
<path d="M35.8855 19.4178L35.8855 25.7912C35.8855 29.2483 38.5471 32.1224 41.994 32.3876C45.7509 32.6765 48.9901 29.774 49.1136 26.008L49.3775 17.9592L48.8855 17.4178L35.8855 19.4178Z" fill="#EBA04B"/>
<path d="M22.8883 21.3007L22.9202 28.288C22.9364 31.8335 25.6996 34.7588 29.2384 34.977C33.1127 35.2158 36.3859 32.1378 36.3853 28.2562L36.3839 19.4175L22.8883 21.3007Z" fill="#951C1C"/>
<path d="M22.8867 21.431L71.3867 13.9177" stroke="white" stroke-width="0.3" stroke-linecap="round"/>
<path d="M7.18652 7.91772C11.6865 11.5844 21.2869 19.8177 22.8869 21.4177V27.4177L7.18652 13.9177V7.91772Z" fill="#711515"/>
<defs>
<filter id="filter0_i_2200_3" x="30.3867" y="23.274" width="35.4941" height="24.1437" filterUnits="userSpaceOnUse" color-interpolation-filters="sRGB">
<feFlood flood-opacity="0" result="BackgroundImageFix"/>
<feBlend mode="normal" in="SourceGraphic" in2="BackgroundImageFix" result="shape"/>
<feColorMatrix in="SourceAlpha" type="matrix" values="0 0 0 0 0 0 0 0 0 0 0 0 0 0 0 0 0 0 127 0" result="hardAlpha"/>
<feOffset dy="-3"/>
<feComposite in2="hardAlpha" operator="arithmetic" k2="-1" k3="1"/>
<feColorMatrix type="matrix" values="0 0 0 0 0.171898 0 0 0 0 0.455436 0 0 0 0 0.533654 0 0 0 1 0"/>
<feBlend mode="normal" in2="shape" result="effect1_innerShadow_2200_3"/>
</filter>
</defs>
</svg>
