<svg width="5168" height="4640" viewBox="0 0 5168 4640" fill="none" xmlns="http://www.w3.org/2000/svg">
<path d="M1064.14 1919.71C923.452 1919.71 792.565 1895.97 671.466 1848.43C550.368 1799.14 444.415 1731.43 353.534 1645.17C262.728 1557.15 191.507 1455.9 139.87 1341.49C89.9927 1225.33 65.0537 1100.35 65.0537 966.617C65.0537 832.805 89.9927 708.733 139.87 594.322C191.507 478.162 262.728 376.911 353.534 290.646C444.415 202.633 550.368 134.899 671.466 87.3702C792.565 38.0839 923.452 13.4443 1064.14 13.4443C1204.82 13.4443 1335.71 38.0839 1456.81 87.3702C1577.91 134.899 1683.87 202.633 1774.67 290.646C1865.55 376.911 1935.85 478.162 1985.73 594.322C2037.37 708.733 2063.22 832.805 2063.22 966.617C2063.22 1100.35 2037.37 1225.33 1985.73 1341.49C1935.85 1455.9 1865.55 1557.15 1774.67 1645.17C1683.87 1731.43 1577.91 1799.14 1456.81 1848.43C1335.71 1895.97 1204.82 1919.71 1064.14 1919.71ZM1064.14 1502.54C1138.96 1502.54 1208.42 1489.37 1272.52 1462.97C1336.63 1434.83 1391.79 1396.95 1438.15 1349.4C1486.19 1301.93 1523.6 1245.57 1550.3 1180.45C1576.99 1113.58 1590.38 1042.3 1590.38 966.617C1590.38 889.173 1576.99 817.819 1550.3 752.702C1523.6 687.585 1486.19 631.292 1438.15 583.748C1391.79 536.204 1336.63 499.234 1272.52 472.837C1208.42 444.691 1138.96 430.618 1064.14 430.618C989.322 430.618 919.861 444.691 855.754 472.837C791.647 499.234 735.573 536.204 687.455 583.748C641.172 631.292 604.682 687.585 577.984 752.702C551.209 817.819 537.898 889.173 537.898 966.617C537.898 1042.3 551.209 1113.58 577.984 1180.45C604.682 1245.57 641.172 1301.93 687.455 1349.4C735.573 1396.95 791.647 1434.83 855.754 1462.97C919.861 1489.37 989.322 1502.54 1064.14 1502.54Z" fill="#6F90FF"/>
<path d="M5114.03 1890.72V62.8071H4388.13L2963.17 1123.01V62.8071H2237.18V1890.72H2918.34L4388.13 788.76V1890.72H5114.03Z" fill="#6F90FF"/>
<path d="M2237.18 4571.62V2723.39H3193.59C3321.8 2723.39 3435.78 2748.95 3535.46 2799.99C3635.22 2849.29 3712.64 2918.82 3767.87 3008.58C3824.86 3096.53 3853.39 3197.77 3853.39 3312.18C3853.39 3428.35 3821.34 3532.18 3757.23 3623.77C3693.13 3715.28 3608.52 3784.81 3503.41 3832.36L3912.15 4571.62H3399.22L3046.63 3898.31H2696.72V4571.62H2237.18ZM2696.72 3528.68H3150.82C3222.05 3528.68 3279.03 3509.36 3321.8 3470.64C3366.32 3431.84 3388.59 3381.71 3388.59 3320.1C3388.59 3258.48 3366.32 3208.35 3321.8 3169.63C3279.03 3130.91 3222.05 3111.51 3150.82 3111.51H2696.72V3528.68Z" fill="#6F90FF"/>
<path d="M4959.12 4551.31V2703.08H4032.17C3903.88 2703.08 3791.74 2725.07 3695.58 2769.12C3597.58 2813.08 3521 2874.7 3465.85 2953.89C3410.61 3031.33 3383 3121.17 3383 3223.26C3383 3298.94 3402.58 3370.22 3441.75 3437.09C3479.16 3502.21 3530.8 3557.66 3596.74 3603.46C3513.05 3647.42 3447.1 3704.64 3399.06 3775.08C3349.18 3845.44 3324.24 3922.88 3324.24 4007.39C3324.24 4114.8 3351.86 4209.82 3407.02 4292.59C3462.25 4373.52 3539.75 4436.89 3639.42 4482.69C3739.18 4528.4 3854.93 4551.31 3986.74 4551.31H4959.12ZM4499.66 3439.75H4061.55C3993.85 3439.75 3940.45 3423.02 3901.28 3389.55C3862.04 3356.16 3842.45 3312.11 3842.45 3257.56C3842.45 3201.28 3862.04 3157.23 3901.28 3125.5C3940.45 3092.11 3993.85 3075.37 4061.55 3075.37H4499.66V3439.75ZM4499.66 4179.01H4021.46C3950.24 4179.01 3894.09 4161.44 3853.16 4126.22C3810.4 4091 3789.06 4043.45 3789.06 3983.66C3789.06 3923.79 3810.4 3876.25 3853.16 3841.03C3894.09 3805.89 3950.24 3788.24 4021.46 3788.24H4499.66V4179.01Z" fill="#6F90FF"/>
<path d="M1126.18 4577.7C934.243 4577.7 767.092 4544.23 624.573 4477.36C484.119 4408.74 375.261 4311.91 298.073 4186.93C220.962 4061.93 182.329 3914.97 182.329 3746.01V2703.08H692.887V3746.01C692.887 3828.71 710.712 3901.81 746.284 3965.18C781.933 4026.71 832.346 4074.26 897.673 4107.73C964.918 4141.21 1042.11 4157.86 1129.16 4157.86C1218.21 4157.86 1294.4 4141.21 1357.75 4107.73C1423 4074.26 1473.49 4026.71 1509.14 3965.18C1544.71 3901.81 1562.53 3828.71 1562.53 3746.01V2703.08H2073.02V3746.01C2073.02 3913.22 2033.47 4059.35 1954.29 4184.26C1877.18 4309.25 1767.32 4406.08 1624.88 4474.7C1484.36 4543.39 1318.12 4577.7 1126.18 4577.7Z" fill="#6F90FF"/>
</svg>
